<?xml version="1.0" encoding="UTF-8" standalone="no"?>
<svg
   xmlns:dc="http://purl.org/dc/elements/1.1/"
   xmlns:cc="http://creativecommons.org/ns#"
   xmlns:rdf="http://www.w3.org/1999/02/22-rdf-syntax-ns#"
   xmlns:svg="http://www.w3.org/2000/svg"
   xmlns="http://www.w3.org/2000/svg"
   viewBox="0 0 5084.2769 1386.4878"
   height="1386.4878"
   width="5084.2769"
   xml:space="preserve"
   id="svg2"
   version="1.1"><metadata
     id="metadata8"><rdf:RDF><cc:Work
         rdf:about=""><dc:format>image/svg+xml</dc:format><dc:type
           rdf:resource="http://purl.org/dc/dcmitype/StillImage" /><dc:title></dc:title></cc:Work></rdf:RDF></metadata><defs
     id="defs6" /><g
     transform="matrix(1.3333333,0,0,-1.3333333,-419.39346,1740.9158)"
     id="g10"><path
       id="path42"
       style="fill:#ffe124;fill-opacity:1;fill-rule:nonzero;stroke:none"
       d="m 1004.367,960.763 h 344.911 v 344.91 h -344.911 z" /><g
       transform="translate(2412.0342,612.4399)"
       id="g44"><path
         id="path46"
         style="fill:#ffe124;fill-opacity:1;fill-rule:nonzero;stroke:none"
         d="M 0,0 H -348.33 V 348.314 H 0 v 344.933 h -693.235 v -0.014 h -0.005 V 0 -344.91 H -348.33 0 v -0.012 H 344.904 V 348.314 H 0 Z" /></g><path
       id="path48"
       style="fill:#ffe124;fill-opacity:1;fill-rule:nonzero;stroke:none"
       d="m 3782.848,610.734 h -348.329 v 348.321 h 348.329 z m 0,348.321 v 344.904 h -348.329 v 0.01 H 3089.607 V 610.736 265.826 h 344.912 348.329 v -0.005 h 344.905 v 693.236 h -344.905 z" /><g
       transform="translate(659.4561,957.3511)"
       id="g50"><path
         id="path52"
         style="fill:#ffe124;fill-opacity:1;fill-rule:nonzero;stroke:none"
         d="M 0,0 V 348.322 H -344.911 V -689.821 H 0 v 344.91 H 344.911 V 0 Z" /></g><path
       id="path54"
       style="fill:#ffe124;fill-opacity:1;fill-rule:nonzero;stroke:none"
       d="m 1004.367,267.53 h 344.911 v 344.91 h -344.911 z" /></g></svg>