<?xml version="1.0" encoding="utf-8"?>
<!-- Generator: Adobe Illustrator 22.1.0, SVG Export Plug-In . SVG Version: 6.00 Build 0)  -->
<svg version="1.1" id="Layer_1" xmlns="http://www.w3.org/2000/svg" xmlns:xlink="http://www.w3.org/1999/xlink" x="0px" y="0px"
	 viewBox="0 0 2000 2000" enable-background="new 0 0 2000 2000" xml:space="preserve">
<g>
	<path fill="#FFE124" d="M1770.225,1549.979c-6.574-10.524-7.534-18.689-0.462-29.608c17.047-26.311,32.709-53.508,48.927-80.339
		c7.175-11.873,14.768-23.511,21.429-35.655c12.686-23.167-6.207-45.373-25.035-44.149c-4.221,0.278-8.487-0.022-12.73-0.022
		c-70.32,0-140.64,0.015-210.96-0.037c-5.255,0-10.502-0.469-16.505-0.755c0-8.384-0.007-15.588,0-22.792
		c0.022-36.974-0.77-73.985,0.432-110.922c0.586-17.992-14.445-35.068-32.43-33.053c-6.588,0.733-13.324,0.117-19.993,0.117H789.98
		c-109.119,0-218.238,0.476-327.357-0.403c-22.485-0.176-39.063,11.213-37.934,38.799c1.554,38.132,0.469,76.374,0.418,114.564
		c-0.007,4.625-0.572,9.256-0.923,14.474h-11.902c-59.407-0.029-118.822-0.073-178.23-0.081c-16.973,0-33.962-0.234-50.921,0.293
		c-22.36,0.703-32.767,25.49-24.625,40.565c1.429,2.646,2.697,5.379,4.243,7.944c22.741,37.692,45.314,75.494,68.444,112.952
		c5.401,8.75,6.288,16.13,0.638,25.006c-12.628,19.854-24.691,40.067-36.915,60.17c-11.594,19.07-23.401,38.015-34.563,57.326
		c-9.916,17.157-3.188,36.93,14.731,43.233c5.475,1.935,11.843,1.81,17.802,1.818c136.397,0.103,272.794,0.095,409.198,0.088
		c23.709,0,34.079-10.187,34.504-33.991c0.205-11.514,0.081-23.034,0.081-34.548c0.007-33.317,0-66.634,0-101.841
		c4.566-0.249,7.512-0.55,10.458-0.542c237.622,0.11,475.252,0.249,712.875,0.418c0.535,0,1.114,0.359,1.576,0.682
		c0.484,0.352,0.85,0.865,1.862,1.935c0,35.098-0.007,70.833,0.007,106.561c0,11.521-0.454,23.071,0.235,34.548
		c0.909,15.002,11.939,25.578,26.904,26.765c3.613,0.286,7.27,0.081,10.905,0.081c67.293,0,134.579,0.007,201.873-0.007
		c67.894-0.015,135.788-0.007,203.69-0.146c5.966-0.015,12.276,0.037,17.831-1.774c16.519-5.372,25.651-25.709,13.954-44.816
		C1815.84,1625.29,1793.538,1587.319,1770.225,1549.979z M237.292,1650.157c18.908-31.675,37.077-63.226,56.439-94.022
		c9.146-14.54,9.63-27.102,0.388-41.818c-19.502-31.059-37.846-62.852-57.157-95.172H424.06c0.337,4.119,1.019,8.707,1.041,13.302
		c0.11,23.628,0.418,47.264-0.103,70.877c-0.271,12.32,3.796,21.928,12.071,30.986c34.665,37.927,68.869,76.264,103.351,114.571
		C527.022,1651.864,272.69,1652.956,237.292,1650.157z M577.452,1602.395c-19.935-21.964-38.081-41.958-57.172-62.991h57.172
		V1602.395z M483.789,1479.476v-226.234c14.885-2.917,980.56-4.251,1032.639-1.4c0.44,75.355,0.169,150.827,0.146,226.175
		C1499.667,1481.191,543.461,1482.502,483.789,1479.476z M1422.641,1539.352h57.209c-19.055,21.004-37.223,41.034-57.209,63.065
		V1539.352z M1705.996,1555.615c19.458,30.979,37.758,62.683,57.07,94.996h-304.102c9.015-10.619,17.032-20.491,25.512-29.96
		c14.936-16.673,30.18-33.068,45.241-49.623c11.792-12.979,23.401-26.12,35.303-38.997c6.94-7.512,10.084-16.079,9.953-26.318
		c-0.271-21.202-0.073-42.412-0.073-63.614v-23.1h188.277c-19.311,32.291-37.546,63.907-56.982,94.762
		C1696.996,1528.366,1696.776,1540.943,1705.996,1555.615z"/>
	<path fill="#FFE124" d="M1502.496,472.099c-26.97,4.163-48.077,17.311-64.149,39.737c-18.359,25.607-19.714,53.391-13.353,83.556
		c-69.763,43.841-139.643,87.755-211.356,132.82c-14.995-29.733-28.876-57.832-43.262-85.674
		c-31.28-60.543-62.683-121.014-94.403-181.323c-3.723-7.072-2.91-11.426,1.898-17.633c19.414-25.087,22.785-53.742,14.863-83.585
		c-12.093-45.593-65.234-80.837-116.492-66.348c-44.369,12.547-73.156,49.352-73.325,95.964
		c-0.073,19.671,6.039,39.407,19.956,54.981c4.866,5.445,4.778,9.799,1.371,16.087c-13.492,24.925-26.472,50.136-39.436,75.34
		c-23.723,46.113-47.278,92.321-70.958,138.464c-8.992,17.523-18.139,34.981-27.659,53.317
		c-71.507-44.838-141.784-88.906-211.62-132.696c3.613-13.133,5.174-37.011,3.034-46.655
		c-12.716-57.223-66.069-88.818-122.201-74.351c-23.386,6.024-41.21,20.946-54.087,40.345
		c-12.884,19.421-19.231,41.833-14.921,65.498c7.043,38.703,28.832,65.938,66.465,78.616c11.777,3.965,15.171,10.619,16.087,22.052
		c1.722,21.576,4.698,43.064,7.688,64.516c4.317,30.928,9.41,61.745,13.61,92.695c4.28,31.602,7.615,63.336,11.843,94.945
		c5.724,42.888,11.983,85.711,17.838,128.577c1.664,12.21,6.962,22.192,18.344,27.058c5.79,2.477,12.899,2.543,19.414,2.55
		c175.232,0.125,350.472,0.103,525.711,0.11c120.054,0.007,240.115,0.073,360.175,0c24.31-0.015,34.651-10.158,36.769-34.621
		c0.989-11.389,2.536-22.734,4.089-34.072c3.415-24.999,7.08-49.968,10.473-74.974c2.748-20.279,5.123-40.602,7.886-60.873
		c3.335-24.412,7.006-48.773,10.341-73.186c2.778-20.272,5.115-40.602,7.93-60.873c3.217-23.196,7.886-46.26,9.718-69.551
		c1.099-13.939,5.716-20.763,19.399-25.233c34.621-11.308,64.12-45.615,64.208-89.771
		C1614.495,510.759,1565.289,462.41,1502.496,472.099z M515.831,586.202c-3.774,7.292-6.508,15.119-9.183,21.473
		c-8.78-1.18-18.146-2.939-27.593-3.613c-18.82-1.334-34.915-17.611-35.34-36.446c-0.425-19.18,18.285-38.762,37.428-39.173
		c19.949-0.432,37.612,15.522,38.821,35.039C520.455,571.405,519.62,578.902,515.831,586.202z M1424.708,1031.934H575.304
		c-18.11-133.04-36.146-265.589-54.453-400.073c4.918,2.294,8.699,3.591,12.005,5.665c81.768,51.273,163.455,102.67,245.23,153.935
		c20.616,12.928,36.234,8.655,47.373-12.847c19.971-38.535,39.693-77.195,59.635-115.744
		c34.079-65.871,68.143-131.758,102.464-197.505c6.486-12.422,10.224-24.676,1.378-37.062c-3.371-4.72-8.758-8.04-13.353-11.851
		c-11.536-9.557-16.373-27.586-11.47-43.189c3.943-12.562,18.813-23.467,33.258-24.383c15.808-1.004,33.266,8.897,37.582,22.998
		c4.155,13.558,5.174,34.02-12.203,45.644c-0.997,0.667-2.155,1.092-3.173,1.73c-12.928,8.157-17.897,24.28-10.18,39.48
		c14.731,29.037,29.506,58.052,44.339,87.037c8.795,17.171,17.765,34.255,26.596,51.412c25.673,49.858,51.28,99.745,76.997,149.581
		c5.804,11.242,12.005,22.287,17.978,33.441c10.048,18.747,26.926,23.599,45.124,12.349c37.956-23.452,75.78-47.11,113.553-70.855
		c44.933-28.245,89.734-56.703,134.652-84.978c2.844-1.788,6.2-2.748,10.575-4.639
		C1460.942,766.088,1442.883,898.6,1424.708,1031.934z M1555.938,568.378c-0.77,15.281-9.344,27.021-23.306,33.83
		c-3.576,1.744-8.208,1.429-12.378,1.818c-8.853,0.828-17.728,1.495-26.567,2.228c-3.481-7.556-7.556-15.471-10.825-23.709
		c-6.75-17.01-2.836-34.819,11.228-45.402c12.745-9.586,27.285-10.136,40.88-3.745
		C1548.953,539.964,1556.722,552.877,1555.938,568.378z"/>
	<path fill="#FFE124" d="M1000.274,1395.898c-6.808,0-13.624,0.007-20.433,0.015c6.808-0.007,13.624-0.007,20.433-0.007
		c26.325-0.007,52.65,0.022,78.968,0.022C1052.917,1395.927,1026.599,1395.898,1000.274,1395.898z"/>
	<path fill="#FFE124" d="M1186.8,1392.409c-7.292,2.353-15.324,3.305-23.034,3.349c-7.336,0.037-14.665,0.066-22.001,0.088
		c-3.723,0.015-7.454,0.022-11.177,0.029c-3.606,0.015-7.219,0.022-10.825,0.022c-39.825,0.073-79.657,0-119.489,0.007
		c-6.808,0-13.624,0-20.433,0.007c-48.29,0.029-96.579,0.117-144.869-0.168c-7.659-0.044-15.676-1.348-22.866-3.921
		c-12.759-4.566-17.838-15.508-16.057-30.979c1.517-13.155,9.879-21.334,23.819-22.932c18.513-2.125,36.864-3.496,55.662-0.674
		c11.638,1.737,23.929-1.092,35.941-1.495c10.275-0.344,20.748-1.4,30.803,0.081c15.676,2.294,30.957,2.389,46.619-0.051
		c9.454-1.473,19.524-1.48,28.978,0c16.27,2.551,32.174,2.426,48.436-0.044c9.462-1.436,19.509-1.378,28.978,0.073
		c15.662,2.404,30.928,1.634,46.619,0.154c13.588-1.282,27.688,0.396,41.298,2.47c13.06,1.993,19.788,10.869,20.865,23.679
		C1205.356,1377.4,1199.772,1388.224,1186.8,1392.409z"/>
</g>
</svg>
