<?xml version="1.0" encoding="utf-8"?>
<!-- Generator: Adobe Illustrator 22.1.0, SVG Export Plug-In . SVG Version: 6.00 Build 0)  -->
<svg version="1.1" id="Layer_1" xmlns="http://www.w3.org/2000/svg" xmlns:xlink="http://www.w3.org/1999/xlink" x="0px" y="0px"
	 viewBox="0 0 2000 2000" enable-background="new 0 0 2000 2000" xml:space="preserve">
<g>
	<path fill="#FFE124" d="M999.246,671.289c-265.957,0.001-531.915,0.002-797.872,0c-5.408,0-10.819,0.099-16.222-0.063
		c-20.9-0.626-37.473-12.494-42.498-30.325c-5.444-19.318,2.182-37.267,21.305-48.629c34.21-20.327,68.587-40.374,102.901-60.527
		c232.995-136.836,466.12-273.454,698.803-410.822c24.73-14.6,45.527-13.601,69.85,0.744
		c264.9,156.238,530.19,311.815,795.373,467.573c23.632,13.88,32.245,30.722,26.416,51.633
		c-5.421,19.446-22.617,30.391-48.385,30.394C1539.026,671.301,1269.136,671.288,999.246,671.289z M257.583,607.111
		c0.343,0.884,0.686,1.768,1.029,2.651c494.326,0,988.653,0,1486.958,0c-7.766-4.968-12.049-7.912-16.519-10.537
		C1490.221,458.94,1251.33,318.76,1012.69,178.154c-10.159-5.986-17.057-4.877-26.485,0.674
		C780.961,299.688,575.54,420.247,370.16,540.876C332.619,562.926,295.109,585.031,257.583,607.111z"/>
	<path fill="#FFE124" d="M1000.712,1689.619c260.026,0,520.053-0.001,780.079,0.004c7.373,0,14.759-0.217,22.116,0.141
		c22.836,1.111,40.31,17.476,40.767,40.401c0.784,39.306,0.734,78.649,0.037,117.958c-0.42,23.635-17.906,40.217-41.565,41.243
		c-9.322,0.404-18.676,0.078-28.015,0.078c-520.053,0.003-1040.105,0.006-1560.158,0.008c-5.407,0-10.824,0.203-16.219-0.058
		c-23.624-1.144-41.131-17.71-41.553-41.3c-0.695-38.819-0.704-77.667-0.052-116.487c0.43-25.618,18.402-41.838,45.314-41.882
		c103.224-0.167,206.448-0.099,309.672-0.104C674.327,1689.614,837.519,1689.619,1000.712,1689.619z M216.442,1828.279
		c522.637,0,1044.325,0,1566.998,0c0-26.123,0-51.377,0-77.157c-522.83,0-1044.857,0-1566.998,0
		C216.442,1777.507,216.442,1802.388,216.442,1828.279z"/>
	<path fill="#FFE124" d="M666.969,1261.715c-0.008-115.485-0.04-230.97,0.012-346.455c0.015-33.885,15.695-49.959,49.268-50.124
		c54.055-0.267,108.113-0.401,162.169-0.216c33.353,0.114,49.813,16.814,49.818,50.053c0.039,231.953,0.024,463.906-0.031,695.859
		c-0.007,31.564-16.707,48.493-48.005,48.57c-55.531,0.136-111.062,0.145-166.593-0.009c-29.491-0.082-46.575-17.255-46.596-46.799
		C666.928,1495.633,666.977,1378.674,666.969,1261.715z M866.625,1598.299c0-224.641,0-448.373,0-672.412
		c-46.834,0-92.349,0-138.49,0c0,224.578,0,448.313,0,672.412C775.083,1598.299,820.575,1598.299,866.625,1598.299z"/>
	<path fill="#FFE124" d="M1332.963,1262.233c-0.007,115.977,0.021,231.954-0.025,347.931c-0.013,32.711-16.277,49.205-48.588,49.255
		c-54.548,0.084-109.097,0.092-163.645-0.006c-32.404-0.058-48.968-16.655-48.975-49.097
		c-0.048-231.462-0.057-462.925-0.029-694.387c0.004-34.386,16.165-50.924,50.339-51.019c54.056-0.149,108.114-0.049,162.169,0.233
		c32.697,0.171,48.723,16.47,48.739,49.16C1333.004,1030.279,1332.97,1146.256,1332.963,1262.233z M1133.312,925.737
		c0,225.241,0,448.862,0,672.617c46.867,0,92.411,0,138.819,0c0-224.543,0-448.236,0-672.617
		C1225.465,925.737,1179.954,925.737,1133.312,925.737z"/>
	<path fill="#FFE124" d="M262.092,1261.469c0.005-114.982,0.002-229.965,0.007-344.948c0.002-35.704,15.445-51.546,50.824-51.619
		c53.068-0.11,106.139-0.215,159.205,0.141c35.816,0.24,50.758,15.725,50.764,51.682c0.044,230.456,0.048,460.912,0.04,691.368
		c-0.001,35.631-15.618,51.333-50.991,51.354c-52.086,0.03-104.172,0.012-156.258,0c-38.883-0.009-53.598-14.582-53.597-53.03
		C262.088,1491.433,262.087,1376.451,262.092,1261.469z M322.643,925.824c-0.451,4.571-1.066,7.9-1.067,11.229
		c-0.045,216.206,0.012,432.413-0.203,648.62c-0.01,9.928,2.561,13.869,13.182,13.726c38.812-0.523,77.635-0.15,116.453-0.254
		c3.695-0.01,7.387-0.995,11.077-1.526c0-224.447,0-447.731,0-671.794C415.397,925.824,369.854,925.824,322.643,925.824z"/>
	<path fill="#FFE124" d="M1737.861,1262.568c0.018,114.982,0.027,229.964,0.012,344.946c-0.005,36.704-15.164,51.908-51.768,51.927
		c-53.56,0.028-107.12,0.078-160.68-0.013c-31.633-0.054-48.33-16.31-48.348-48.008c-0.131-232.912-0.132-465.824-0.017-698.736
		c0.015-30.834,16.229-47.238,47.427-47.511c55.521-0.486,111.05-0.541,166.572-0.169c30.634,0.205,46.728,17.189,46.75,48.198
		C1737.894,1029.656,1737.843,1146.112,1737.861,1262.568z M1677.345,926.845c-2.369-0.741-3.726-1.535-5.086-1.539
		c-41.764-0.12-83.531,0.077-125.292-0.381c-10.691-0.117-10.259,6.114-10.258,13.384c0.031,215.709,0.085,431.418-0.227,647.126
		c-0.016,11.257,3.736,14.179,14.444,14.019c37.336-0.556,74.684-0.203,112.027-0.307c4.692-0.013,9.383-0.692,14.391-1.086
		C1677.345,1373.313,1677.345,1150.03,1677.345,926.845z"/>
	<path fill="#FFE124" d="M1606.507,842.875c-45.653,0.007-91.307,0.097-136.959-0.025c-30.783-0.082-47.284-16.552-47.454-47.158
		c-0.115-20.617-0.25-41.239,0.052-61.852c0.378-25.777,17.765-43.776,43.503-43.853c94.251-0.284,188.503-0.269,282.754,0.008
		c26.775,0.078,44.185,17.806,44.572,44.379c0.314,21.595,0.354,43.203-0.016,64.796c-0.448,26.098-17.501,43.394-43.601,43.594
		C1701.743,843.13,1654.124,842.868,1606.507,842.875z M1483.391,751.049c-0.584,3.139-1.272,5.481-1.422,7.856
		c-1.55,24.453-1.526,24.438,22.668,24.432c69.211-0.016,138.422-0.018,207.633-0.025c6.241-0.001,12.483,0,19.377,0
		c0-11.949,0-21.871,0-32.264C1648.224,751.049,1565.986,751.049,1483.391,751.049z"/>
	<path fill="#FFE124" d="M392.213,842.883c-45.721,0.006-91.442,0.091-137.162-0.023c-31.722-0.079-47.985-16.429-48.138-48.167
		c-0.095-19.664-0.174-39.331,0.027-58.994c0.284-27.734,17.42-45.654,44.856-45.729c93.899-0.259,187.799-0.251,281.698-0.005
		c26.701,0.07,44.01,17.913,44.314,44.678c0.241,21.137,0.237,42.281-0.006,63.418c-0.319,27.751-17.368,44.637-45.477,44.761
		C485.621,843.026,438.917,842.877,392.213,842.883z M517.188,751.194c-84.025,0-166.235,0-248.712,0c0,10.931,0,20.813,0,30.976
		c83.479,0,165.622,0,248.712,0C517.188,771.453,517.188,761.877,517.188,751.194z"/>
	<path fill="#FFE124" d="M1202.434,842.871c-45.716,0.012-91.432,0.083-137.148-0.013c-31.956-0.067-47.902-16.076-48.031-48.038
		c-0.081-20.154-0.241-40.312,0.058-60.462c0.402-27.017,17.308-44.331,44.419-44.406c93.889-0.262,187.78-0.266,281.67,0.03
		c26.721,0.084,44.12,17.703,44.752,44.517c0.498,21.126,0.498,42.281,0.025,63.408c-0.625,27.885-17.834,44.766-45.646,44.893
		C1295.833,843.014,1249.133,842.859,1202.434,842.871z M1326.642,783.315c0-12.294,0-22.263,0-31.996
		c-83.668,0-166.014,0-248.159,0c-5.33,31.898-5.268,31.985,24.495,31.988c68.335,0.008,136.67,0.006,205.005,0.008
		C1313.794,783.315,1319.606,783.315,1326.642,783.315z"/>
	<path fill="#FFE124" d="M797.912,842.876c-46.207,0.002-92.414,0.098-138.621-0.032c-30.556-0.086-47.197-16.677-47.607-47.469
		c-0.262-19.659-0.284-39.328,0.032-58.986c0.469-29.251,17.809-46.434,47.348-46.487c92.414-0.165,184.828-0.168,277.242-0.003
		c29.046,0.052,46.027,16.931,46.347,45.523c0.237,21.135,0.323,42.279-0.024,63.41c-0.446,27.183-17.243,43.828-44.62,43.974
		C891.31,843.053,844.611,842.874,797.912,842.876z M672.743,783.315c6.451,0,12.184,0,17.916,0
		c68.649-0.002,137.298-0.001,205.947-0.008c28.939-0.003,28.95-0.012,25.997-29.231c-0.085-0.842-1.022-1.598-1.816-2.771
		c-82.317,0-164.87,0-248.044,0C672.743,762.009,672.743,771.594,672.743,783.315z"/>
</g>
</svg>
