<?xml version="1.0" encoding="utf-8"?>
<!-- Generator: Adobe Illustrator 22.1.0, SVG Export Plug-In . SVG Version: 6.00 Build 0)  -->
<svg version="1.1" id="Layer_1" xmlns="http://www.w3.org/2000/svg" xmlns:xlink="http://www.w3.org/1999/xlink" x="0px" y="0px"
	 viewBox="0 0 2000 2000" enable-background="new 0 0 2000 2000" xml:space="preserve">
<g>
	<path fill="#FFE124" d="M557.381,1262.992c-43.212,0-87.143,0-131.742,0c-32.267,31.143-64.772,62.516-98.001,94.587
		c14.623,24.157,19.475,49.476,10.887,76.471c-5.477,17.217-15.859,31.044-30.287,41.571
		c-31.015,22.628-71.843,21.863-102.022-1.443c-29.019-22.411-40.531-62.923-27.549-96.273c8.2-21.064,22.202-36.903,42.4-46.891
		c20.189-9.984,41.471-10.691,63.486-4.994c18.485-17.791,36.707-35.319,54.918-52.859c18.242-17.569,36.657-34.965,54.623-52.814
		c7.616-7.567,16.185-10.746,26.803-10.652c31.557,0.28,63.117,0.09,94.677,0.084c4.389-0.001,8.779,0,15.252,0
		c-26.039-59.583-40.295-119.696-44.194-182.896c-41.973,0-82.868,0-123.468,0c-26.864,48.436-61.793,66.45-105.028,54.552
		c-36.24-9.973-61.975-44.81-61.262-82.93c0.735-39.291,28.23-72.851,66.567-81.245c41.306-9.045,76.866,10.696,99.284,55.809
		c40.465,0,81.404,0,121.78,0c5.299-30.9,9.009-61.794,16.2-91.855c7.2-30.098,17.879-59.364,27.429-90.278
		c-3.249-0.199-7.575-0.686-11.902-0.695c-31.144-0.068-62.292-0.342-93.429,0.113c-12.025,0.176-21.405-3.49-30.054-11.974
		c-32.599-31.98-65.669-63.481-98.573-95.149c-2.973-2.861-6.027-5.637-9.732-9.095c-25.873,6.679-50.768,4.149-73.55-11.13
		c-16.101-10.799-26.974-25.639-33.258-43.85c-11.776-34.13,1.331-74.046,31.11-95.18c31.316-22.225,72.672-21.457,101.991,2.301
		c17.448,14.139,28.083,32.235,31.181,54.862c3.015,22.017-2.747,41.823-14.371,61.138c32.972,31.849,65.449,63.22,98.105,94.763
		c44.072,0,88.013,0,131.681,0c104.562-160.222,250.519-250.06,442.924-249.997c191.942,0.063,337.503,89.814,442.367,249.94
		c43.064,0,86.994,0,131.699,0c32.188-31.075,64.691-62.455,97.92-94.535c-14.615-24.113-19.396-49.461-10.851-76.443
		c5.451-17.211,15.843-31.002,30.261-41.585c30.843-22.638,72.184-21.938,102.007,1.384c29.296,22.909,40.655,62.745,27.601,96.253
		c-8.2,21.049-22.174,36.937-42.386,46.909c-20.184,9.958-41.471,10.719-63.504,5.04c-15.799,15.176-31.352,30.087-46.873,45.031
		c-20.339,19.582-40.948,38.895-60.843,58.918c-8.888,8.945-18.665,12.61-31.134,12.409c-30.721-0.494-61.455-0.161-92.183-0.16
		c-4.399,0-8.797,0-12.81,0c9.664,31.158,20.37,60.344,27.566,90.371c7.21,30.084,10.917,61.008,16.328,92.544
		c39.942,0,80.842,0,121.411,0c25.775-47.759,60.725-66.051,103.865-54.803c36.907,9.622,63.235,44.789,62.352,83.281
		c-0.895,38.99-27.756,72.141-65.491,80.828c-41.785,9.618-77.424-9.871-100.408-55.554c-40.486,0-81.427,0-123.746,0
		c-4.089,62.682-17.975,122.926-43.989,182.053c5.678,0.338,10.016,0.811,14.355,0.82c31.144,0.064,62.292,0.334,93.43-0.118
		c12.029-0.175,21.415,3.538,30.047,12.012c33.179,32.574,66.8,64.697,100.279,96.964c2.374,2.288,4.932,4.385,8.031,7.125
		c26.706-6.219,52.379-3.601,75.606,12.762c15.518,10.932,25.659,25.817,31.569,43.626c11.316,34.099-2.501,73.953-32.62,94.709
		c-31.074,21.414-72.083,20.312-100.991-3.151c-17.434-14.151-28.149-32.268-31.105-54.902
		c-2.865-21.929,2.522-41.865,14.359-61.126c-32.982-31.841-65.47-63.205-98.097-94.704c-44.136,0-88.074,0-131.655,0
		c-104.636,160.295-250.653,250.13-443.028,250.013C807.726,1512.838,662.038,1423.206,557.381,1262.992z M622.328,1262.366
		c70.785,108.759,218.679,204.435,393.541,198.718c165.953-5.426,303.122-104.926,361.12-198.621c-5.172,0-9.649,0.215-14.096-0.06
		c-4.523-0.28-9.18-0.469-13.49-1.705c-12.38-3.55-20.063-15.055-18.829-27.345c1.167-11.617,10.633-21.546,22.644-23.093
		c5.322-0.685,10.774-0.445,16.168-0.466c13.649-0.054,27.297-0.018,40.229-0.018c29.099-47.136,54.635-150.112,48.341-183.569
		c-3.853,0-7.938,0.009-12.024-0.002c-9.136-0.024-18.294,0.331-27.404-0.168c-18.901-1.035-30.595-19.602-22.905-36.61
		c4.672-10.332,13.143-15.699,24.761-15.645c12.764,0.059,25.527,0.014,39.928,0.014c-3.593-65.749-20.352-126.033-49.755-183.59
		c-8.211,0-15.648,0.019-23.084-0.005c-10.797-0.035-21.619,0.347-32.383-0.274c-11.75-0.679-20.529-8.212-23.624-18.989
		c-3.048-10.614,0.603-22.017,10.845-28.099c5.4-3.207,12.378-4.074,18.785-5.166c4.993-0.851,10.205-0.416,16.179-0.576
		c-68.08-104.396-217.152-210.379-410.735-197.28C815.069,550.066,682.815,641.19,623,737.522c5.592,0,10.504-0.265,15.374,0.077
		c4.513,0.317,9.164,0.71,13.433,2.073c11.146,3.558,18.271,14.384,17.611,25.797c-0.658,11.367-9.043,21.511-20.316,23.819
		c-4.419,0.905-9.077,0.84-13.628,0.869c-15.308,0.097-30.618,0.037-45.161,0.037c-29.268,47.231-54.936,152.16-48.239,183.586
		c3.845,0,7.936-0.008,12.027,0.002c9.136,0.023,18.295-0.346,27.404,0.166c18.845,1.06,30.534,19.757,22.776,36.696
		c-4.713,10.291-13.208,15.631-24.835,15.55c-12.746-0.089-25.494-0.02-39.747-0.02c3.361,65.899,20.418,126.097,49.637,183.602
		c6.699,0,12.477-0.019,18.256,0.004c12.458,0.05,24.97-0.599,37.361,0.346c20.605,1.571,31.224,23.756,19.914,40.424
		c-5.352,7.888-13.167,11.215-22.269,11.748C636.427,1262.658,630.219,1262.366,622.328,1262.366z M258.191,624.854
		c17.8,0.005,32.698-14.817,32.537-32.37c-0.159-17.384-15.644-32.425-33.054-32.108c-17.332,0.316-31.376,14.572-31.536,32.012
		C225.97,610.652,239.987,624.849,258.191,624.854z M1742.222,624.865c18.105-0.231,31.932-14.67,31.558-32.958
		c-0.353-17.289-14.77-31.495-32.006-31.536c-17.333-0.042-32.708,15.352-32.563,32.603
		C1709.359,610.547,1724.415,625.091,1742.222,624.865z M226.143,1407.735c0.229,17.823,15.22,32.381,32.848,31.898
		c16.916-0.463,31.56-15.299,31.711-32.125c0.151-16.87-15.546-32.404-32.709-32.37
		C239.893,1375.175,225.909,1389.487,226.143,1407.735z M1773.789,1407.047c-0.15-18.131-14.511-32.418-32.545-31.849
		c-12.484,0.393-32.729,14.386-32.182,31.771c0.54,17.172,15.299,32.633,32.589,32.67
		C1759.371,1439.676,1773.937,1424.904,1773.789,1407.047z M1686.348,999.873c-0.058,17.928,14.469,32.56,32.204,32.436
		c17.518-0.122,32.592-15.442,32.275-32.801c-0.311-17.028-14.832-31.442-32.022-31.786
		C1701.067,967.367,1686.406,981.89,1686.348,999.873z M281.794,967.789c-17.681-0.117-32.751,14.766-32.689,32.282
		c0.063,17.471,15.341,32.482,32.827,32.253c17.243-0.226,31.43-14.482,31.638-31.792
		C313.789,982.386,299.737,967.907,281.794,967.789z"/>
	<path fill="#FFE124" d="M999.978,1351.654c-192.239,0.406-352.036-157.84-351.727-352.008
		c0.308-194.08,159.417-351.565,352.19-351.375c193.862,0.191,351.114,159.799,351.268,351.316
		C1351.865,1193.356,1194.085,1351.635,999.978,1351.654z M700.429,1000.785c2.643,164.697,130.057,297.947,299.615,298.28
		c166.768,0.328,299.696-133.429,299.02-299.83c-0.684-168.245-133.851-298.242-299.194-298.353
		C833.307,700.77,701.708,834.274,700.429,1000.785z"/>
	<path fill="#FFE124" d="M1026.171,781.579c5.327,0.267,9.359,0.626,13.392,0.645c15.363,0.071,30.732-0.237,46.088,0.093
		c30.643,0.658,54.233,24.162,54.91,54.751c0.349,15.768,0.297,31.555-0.014,47.325c-0.33,16.751-10.607,27.356-25.909,27.421
		c-15.146,0.064-25.651-10.691-26.221-27.173c-0.273-7.88-0.068-15.777-0.073-23.666c-0.005-7.85-0.001-15.7-0.001-23.191
		c-9.306-3.639-47.539-4.265-61.425-1.165c0,44.912,0,89.996,0,136.025c3.209,0.382,6.353,1.058,9.501,1.081
		c16.193,0.117,32.39-0.126,48.58,0.115c31.699,0.472,55.28,23.562,55.533,55.086c0.357,44.421,0.355,88.848-0.013,133.269
		c-0.264,31.894-24.368,55.206-56.618,55.502c-18.626,0.171-37.256,0.031-57.737,0.031c0,5.761,0.076,10.571-0.014,15.377
		c-0.322,17.24-10.647,29.133-25.822,29.051c-15.944-0.086-28.203-13.309-26.635-29.577c0.426-4.42,0.065-8.915,0.065-14.156
		c-5.335-0.272-9.365-0.636-13.397-0.655c-15.363-0.073-30.732,0.232-46.088-0.095c-30.72-0.654-54.167-24.01-54.888-54.741
		c-0.37-15.767-0.314-31.554,0.003-47.323c0.337-16.754,10.616-27.352,25.894-27.407c15.224-0.054,25.845,10.644,26.208,27.151
		c0.346,15.729,0.074,31.472,0.074,46.825c9.185,3.568,39.107,4.483,59.807,2.169c2.918-8.421,4.06-113.56,1.368-137.042
		c-2.93-0.345-6.08-1.016-9.236-1.039c-16.193-0.114-32.39,0.132-48.58-0.108c-31.665-0.471-55.24-23.547-55.512-55.099
		c-0.382-44.421-0.377-88.849-0.007-133.27c0.262-31.402,24.056-54.972,55.399-55.478c19.037-0.307,38.084-0.057,58.952-0.057
		c0-6.167-0.123-11.401,0.023-16.628c0.451-16.151,11.209-27.71,25.83-27.884c15.111-0.18,26.159,11.614,26.544,28.428
		C1026.265,771.05,1026.171,775.935,1026.171,781.579z M972.86,973.114c0-46.396,0-91.68,0-138.214
		c-20.526-0.1-40.147-0.35-61.261,0.125c0.034,46.97-0.296,92.202,0.215,138.089C932.969,973.114,952.298,973.114,972.86,973.114z
		 M1088.014,1026.969c-21.121,0-40.735,0-61.036,0c0,46.073,0,91.381,0,136.525c14.939,3.015,52.227,2.323,61.036-1.168
		C1088.014,1117.896,1088.014,1073.244,1088.014,1026.969z"/>
</g>
</svg>
