<?xml version="1.0" encoding="utf-8"?>
<!-- Generator: Adobe Illustrator 22.1.0, SVG Export Plug-In . SVG Version: 6.00 Build 0)  -->
<svg version="1.1" id="Layer_1" xmlns="http://www.w3.org/2000/svg" xmlns:xlink="http://www.w3.org/1999/xlink" x="0px" y="0px"
	 viewBox="0 0 2000 2000" enable-background="new 0 0 2000 2000" xml:space="preserve">
<g>
	<path fill="#FFE124" d="M1798.665,859.328c-26.8-35.33-53.98-70.36-81.03-105.5c-57.99-75.37-116.16-150.6-173.87-226.18
		c-15.13-19.82-32.17-24.38-53.7-9.27c-1.75,1.22-3.6,2.31-5.4,3.46c-50.88,32.43-101.85,64.74-152.58,97.41
		c-8.44,5.44-16.89,7.81-26.96,7.77c-68.4-0.32-136.81-0.34-205.22,0.02c-9.98,0.05-20.26,1.46-29.86,4.15
		c-52.33,14.68-104.53,29.81-156.67,45.15c-9.05,2.66-17.49,2.93-26.59,0.41c-46.22-12.82-92.45-25.64-138.86-37.74
		c-23.46-6.11-44.91-15.41-65.28-28.9c-46.3-30.65-93.56-59.85-140.45-89.62c-4.05-2.58-8.05-5.32-12.36-7.4
		c-14.12-6.83-26.94-4.47-37.82,6.82c-2.96,3.07-5.6,6.46-8.28,9.79c-94.66,117.22-189.37,234.42-283.88,351.77
		c-7.62,9.46-13.88,20.01-20.78,30.05v9.63c5.1,12.1,14,20.82,23.92,29.25c46.82,39.77,93.26,80.01,139.71,120.22
		c4.8,4.16,9.32,8.86,13.11,13.95c43.39,58.26,86.63,116.65,129.85,175.03c2.75,3.71,5.06,7.73,7.51,11.5
		c-29.5,35.31-38.16,74.03-22.92,116.16c15.55,43,48.52,66.05,94.14,73.79c0,7.98-0.12,15.34,0.02,22.7
		c1.1,54.62,45.85,102.34,100.24,106.99c14.02,1.19,14.03,1.19,15.08,14.53c2.33,29.67,15.08,54.17,37.1,73.87
		c23.05,20.63,50.28,29.59,81.05,27.61c7.89-0.51,12.12,0.59,14.09,10.16c9.09,43.94,35.33,73.98,78.34,86.87
		c43.78,13.11,82.1,1.16,114.47-30.68c4.89-4.81,9.81-9.59,15.2-14.85c7.62,5.98,14.01,11.58,20.95,16.36
		c35.38,24.37,73.39,28.72,112.3,10.84c38.23-17.57,60.32-48.14,64.68-90.6c1.33-12.95,1.24-12.96,14.85-14.7
		c56.39-7.21,94.71-46.47,100.89-103.22c0.39-3.59,1.44-7.11,2.19-10.68c70.87-6.98,109.26-45.97,115.44-116.19
		c4.18-0.29,6.81-0.4,9.42-0.66c87.67-8.75,127.2-96.84,91.28-165.39c-4.18-7.97-2.68-13.64,0.7-20.66
		c31.4-65.41,62.49-130.96,94.06-196.29c3.37-6.96,8.35-13.75,14.15-18.82c44.68-39,89.62-77.71,134.8-116.13
		c10.26-8.72,19.77-17.66,25.23-30.21v-9.62C1813.535,881.278,1806.655,869.878,1798.665,859.328z M254.485,912.828
		c11.43-14.3,21.97-27.62,32.63-40.83c74.73-92.6,149.48-185.18,224.22-277.76c1.35-1.66,2.84-3.23,3.97-5.02
		c4.42-6.97,9.16-6.95,15.95-2.49c24.51,16.11,49.38,31.66,74.12,47.42c15.65,9.96,31.3,19.93,48.63,30.96
		c-95.07,115.83-189.02,230.31-284.43,346.55C331.055,978.578,293.245,946.108,254.485,912.828z M540.885,1385.138
		c-20.22-19.18-21.83-49.38-2.62-70.6c13.61-15.03,28.02-29.45,43.17-42.91c16.18-14.38,35.34-17.42,55.07-7.77
		c18.33,8.97,27.98,24.12,27.8,46.74c0.47,12.38-4.72,24.45-14.33,34.45c-12.95,13.47-26.01,26.89-39.68,39.63
		C589.515,1404.038,560.705,1403.928,540.885,1385.138z M710.785,1515.538c-21.39,20.03-50.66,18.5-70.38-1.52
		c-19.08-19.35-19.5-49.61,0.5-70.58c24.67-25.87,50.2-50.93,75.77-75.91c11.62-11.35,21.13-14.53,36.01-14.56
		c37.55-0.1,61.27,38.7,44.34,72.71c-2.12,4.25-4.72,8.53-8.03,11.88C763.115,1463.748,737.635,1490.378,710.785,1515.538z
		 M832.895,1625.128c-3.77,3.75-7.69,7.47-11.99,10.58c-21.09,15.21-49.34,12.32-66.76-6.61c-16.84-18.29-17.88-46.48-1.53-65.87
		c8.93-10.59,19.15-20.09,28.93-29.95c15.8-15.92,31.66-31.78,47.61-47.56c10.61-10.5,22.95-17.32,39.82-16.97
		c33.46-0.05,57.82,34.22,45.12,66.79c-3.56,9.12-9.94,17.7-16.78,24.86C876.305,1582.418,854.485,1603.668,832.895,1625.128z
		 M998.245,1691.208c-13.94,14.73-27.93,29.51-43.02,43.02c-19.76,17.69-49.81,16.18-68.3-2.12c-19.29-19.09-20.65-48.93-2.08-69.33
		c13.64-14.99,27.96-29.48,43.02-43.02c26.44-23.78,66.6-14.65,79.57,17.63c2.34,5.8,3.02,12.28,4.46,18.44
		C1011.565,1669.508,1007.395,1681.538,998.245,1691.208z M1489.735,1371.568c-17.93,18.95-47.72,21.11-68.36,4.63
		c-5.41-4.31-10.18-9.44-15.06-14.38c-62.77-63.45-125.49-126.94-188.27-190.37c-4.5-4.55-8.98-9.28-14.14-12.97
		c-12.78-9.13-28.66-7.6-39.42,3.19c-11.59,11.62-12.73,27.41-2.63,40.68c2.89,3.8,6.5,7.08,9.88,10.49
		c65.36,66.14,130.81,132.2,196,198.51c6.27,6.37,12.4,13.62,16.09,21.62c9.65,20.96,2.98,44.73-15.08,58.9
		c-17.88,14.04-42.69,14.64-61,1.06c-5.11-3.79-9.61-8.48-14.12-13.02c-42.54-42.85-85.07-85.73-127.51-128.69
		c-7.35-7.44-15.06-13.21-26.34-13.05c-12.53,0.17-21.68,5.55-27.18,16.43c-5.44,10.78-4.82,21.78,2.23,31.79
		c3.05,4.32,7.04,8.02,10.79,11.82c42.04,42.6,84.22,85.07,126.07,127.85c6.26,6.4,12.41,13.59,16.22,21.56
		c10.38,21.73,3.01,47.35-16.31,61.23c-19.14,13.75-45.82,12.62-63.51-3.82c-15.26-14.18-29.55-29.4-44.25-44.17
		c-10.93-10.99-21.6-22.24-32.81-32.94c-13.78-13.14-32.19-13.61-44.46-1.71c-12.14,11.78-12.7,31.14,0.15,44.66
		c21.71,22.85,44.25,44.92,66.39,67.36c4.5,4.56,9.16,9.05,13.1,14.07c15.68,19.97,14.29,47.46-3.05,65.93
		c-16.75,17.84-45.46,20.57-65.88,6.21c-2.18-1.53-4.18-3.32-6.21-5.06c-9.93-8.51-9.69-8.44-5.32-21.15
		c14.27-41.5,9.1-80-19-114.37c-15.74-19.26-36.39-31.21-60.6-36.42c-7.58-1.63-9.69-4.91-8.56-12.06
		c10.12-63.84-34.4-122.99-102.77-129.05c-2.62-0.23-5.24-0.59-9.21-1.05c-2.29-35.25-13.49-66.71-41.97-89.62
		c-27.91-22.44-59.86-29.14-95.7-22.94c-1.38-2.73-3.38-5.28-4.01-8.14c-18.05-82.49-114.52-113.31-178.12-64.26
		c-2.02,1.55-4.25,2.85-7.93,5.29c-41.69-56.15-82.98-111.75-124.84-168.13c4.18-5.46,7.87-10.58,11.87-15.45
		c92.16-112.37,184.5-224.59,276.31-337.24c7.69-9.44,14.81-11.41,25.72-8.13c21.94,6.59,44.13,12.33,66.19,18.55
		c4.49,1.26,8.82,3.1,14.37,5.09c-4.08,7.55-7.48,14.13-11.12,20.58c-36.8,65.05-73.46,130.18-110.54,195.07
		c-15.6,27.29-20.56,56.01-12.7,86.32c12.07,46.54,42.96,75.24,89.5,83.27c49.63,8.55,90.78-12.07,115.13-52.27
		c20.18-33.32,38.68-67.66,57.91-101.55c6.59-11.61,13.48-23.06,19.6-34.91c3.75-7.26,8.9-9.5,16.78-8.83
		c35.63,3.01,71.28,7.46,106.95,7.74c21.84,0.18,35.01,10.33,48.99,24.39c116.83,117.46,234.11,234.47,351.25,351.62
		c4.16,4.16,8.51,8.17,12.27,12.66C1508.265,1324.368,1507.425,1352.868,1489.735,1371.568z M1585.645,1050.948
		c-26.43,54.18-52.1,108.73-78.1,163.12c-1.54,3.22-3.73,6.13-6.58,10.74c-5.39-5.09-10.05-9.26-14.46-13.67
		c-112.24-112.2-224.53-224.34-336.52-336.78c-10.73-10.77-21.79-17.07-37.58-17.83c-42.63-2.05-85.18-5.75-127.76-8.83
		c-12.24-0.89-24.48-1.86-36.71-2.89c-15.73-1.33-26.39,5.85-33.9,19.25c-19.06,33.99-38.36,67.84-57.58,101.74
		c-10.26,18.1-20.1,36.47-30.98,54.2c-15.24,24.83-43.88,32.38-68.07,19.1c-19.23-10.55-34.68-38.78-21.33-64.79
		c5.84-11.39,12.18-22.52,18.48-33.67c32.32-57.14,64.86-114.16,96.91-171.45c5.04-9.02,11.2-14.15,21.4-17.03
		c68.21-19.25,136.19-39.35,204.34-58.81c8.59-2.45,17.78-3.88,26.7-3.92c65.19-0.33,130.38,0.09,195.56-0.44
		c10.86-0.08,17.63,3.62,24.11,11.89c85.98,109.75,172.19,219.32,258.51,328.82
		C1587.435,1036.478,1590.055,1041.908,1585.645,1050.948z M1631.085,991.748c-85.81-109.11-170.5-216.81-256.38-326.02
		c10.56-6.81,19.02-12.33,27.53-17.75c30.63-19.51,61.24-39.03,91.92-58.45c12.39-7.84,12.58-7.82,21.47,3.7
		c57.08,74.04,114.11,148.11,171.15,222.17c16.3,21.16,32.62,42.31,48.86,63.51c3.18,4.15,6.07,8.53,10.05,14.18
		C1707.655,925.828,1670.235,958.048,1631.085,991.748z"/>
	<path fill="#FFE124" d="M848.565,554.158c-11.84,12.6-28.58,13.28-43.12,1.62c-2.9-2.33-5.54-5.01-8.18-7.65
		c-68.73-68.71-137.52-137.36-206.02-206.3c-5.81-5.86-11.51-13.13-13.94-20.8c-6.31-19.87,8.02-37.91,30.15-38.03
		c8.41-0.69,16.07,3.52,22.78,10.29c13.52,13.67,27.19,27.19,40.78,40.78c55.89,55.87,111.78,111.74,167.66,167.63
		c3.4,3.4,6.91,6.71,9.98,10.39C859.775,525.408,859.655,542.358,848.565,554.158z"/>
	<path fill="#FFE124" d="M1419.765,329.028c-3.02,4.93-7.2,9.26-11.32,13.39c-68.28,68.4-136.63,136.73-205.03,205.02
		c-4.13,4.13-8.43,8.31-13.3,11.45c-12.94,8.34-27.49,6.54-37.99-4.03c-10.62-10.7-12.13-26.9-3.37-39.5
		c2.41-3.48,5.54-6.49,8.55-9.51c69.82-69.87,139.69-139.71,209.52-209.58c7.3-7.31,14.69-14.29,24.58-13.17
		c13.28-0.6,22.49,3.97,28.4,14.07C1425.925,307.638,1426.135,318.628,1419.765,329.028z"/>
	<path fill="#FFE124" d="M1031.085,533.988c-1.74,17.42-15.57,30.58-31.59,30.25c-15.52-0.32-28.65-12.98-30.54-29.63
		c-0.36-3.16-0.19-6.4-0.2-9.6c0-55.54-0.01-111.08,0.01-166.61c0.01-3.74-0.18-7.54,0.44-11.19c2.65-15.62,14.34-25.86,29.68-26.32
		c16.18-0.49,28.72,9.5,31.75,25.72c0.78,4.15,0.59,8.5,0.59,12.76c0.05,27.77,0.03,55.54,0.03,83.31c0,26.7,0,53.4-0.01,80.11
		C1031.245,526.518,1031.445,530.288,1031.085,533.988z"/>
	<path fill="#FFE124" d="M1031.125,222.198c-0.02,15.99-14.72,30.78-30.84,31.01c-15.99,0.24-30.97-14.27-31.41-30.42
		c-0.45-16.68,14.97-32.18,31.63-31.8C1016.765,191.358,1031.135,206.008,1031.125,222.198z"/>
</g>
</svg>
